<mxfile host="app.diagrams.net" agent="Mozilla/5.0 (Windows NT 10.0; Win64; x64) AppleWebKit/537.36 (KHTML, like Gecko) Chrome/134.0.0.0 Safari/537.36" version="26.1.1">
  <diagram name="Página-1" id="0u6DbcFh6PtMIz_RHQG5">
    <mxGraphModel dx="1167" dy="619" grid="1" gridSize="10" guides="1" tooltips="1" connect="1" arrows="1" fold="1" page="1" pageScale="1" pageWidth="1169" pageHeight="827" math="0" shadow="0">
      <root>
        <mxCell id="0" />
        <mxCell id="1" parent="0" />
        <mxCell id="RglcB5ilUzWC2CmNjKel-1" value="Usuario" style="shape=umlActor;verticalLabelPosition=bottom;verticalAlign=top;html=1;shadow=0;align=center;container=0;" vertex="1" parent="1">
          <mxGeometry x="300" y="373.1590106007067" width="37.22574370709383" height="74.45229681978799" as="geometry" />
        </mxCell>
        <mxCell id="RglcB5ilUzWC2CmNjKel-9" value="Técnico" style="shape=umlActor;verticalLabelPosition=bottom;verticalAlign=top;html=1;shadow=0;align=center;container=0;" vertex="1" parent="1">
          <mxGeometry x="794" y="110.00236749116601" width="37.22574370709383" height="74.45229681978799" as="geometry" />
        </mxCell>
        <mxCell id="RglcB5ilUzWC2CmNjKel-10" value="Administrador" style="shape=umlActor;verticalLabelPosition=bottom;verticalAlign=top;html=1;shadow=0;align=center;container=0;" vertex="1" parent="1">
          <mxGeometry x="300" y="583.1356890459365" width="37.22574370709383" height="74.45229681978799" as="geometry" />
        </mxCell>
        <mxCell id="RglcB5ilUzWC2CmNjKel-16" value="Cancelar Reserva" style="ellipse;whiteSpace=wrap;html=1;container=0;" vertex="1" parent="1">
          <mxGeometry x="622.268581235698" y="343" width="106.35926773455378" height="53.18021201413428" as="geometry" />
        </mxCell>
        <mxCell id="RglcB5ilUzWC2CmNjKel-21" value="Actualizar Estado Cargador" style="ellipse;whiteSpace=wrap;html=1;container=0;" vertex="1" parent="1">
          <mxGeometry x="622.2698627002288" y="204.45840989399292" width="106.35926773455378" height="53.18021201413428" as="geometry" />
        </mxCell>
        <mxCell id="RglcB5ilUzWC2CmNjKel-22" value="Reportar Incidencia" style="ellipse;whiteSpace=wrap;html=1;container=0;" vertex="1" parent="1">
          <mxGeometry x="622.2685812356981" y="278" width="106.35926773455378" height="53.18021201413428" as="geometry" />
        </mxCell>
        <mxCell id="RglcB5ilUzWC2CmNjKel-29" value="" style="endArrow=classic;html=1;rounded=0;entryX=0;entryY=0.5;entryDx=0;entryDy=0;" edge="1" parent="1" target="RglcB5ilUzWC2CmNjKel-13">
          <mxGeometry width="50" height="50" relative="1" as="geometry">
            <mxPoint x="349.98885583524026" y="405.0671378091873" as="sourcePoint" />
            <mxPoint x="956.236681922197" y="564.6077738515901" as="targetPoint" />
          </mxGeometry>
        </mxCell>
        <mxCell id="RglcB5ilUzWC2CmNjKel-30" value="" style="endArrow=classic;html=1;rounded=0;entryX=0;entryY=0.5;entryDx=0;entryDy=0;" edge="1" parent="1" target="RglcB5ilUzWC2CmNjKel-15">
          <mxGeometry width="50" height="50" relative="1" as="geometry">
            <mxPoint x="349.98885583524026" y="405.0671378091873" as="sourcePoint" />
            <mxPoint x="956.236681922197" y="564.6077738515901" as="targetPoint" />
          </mxGeometry>
        </mxCell>
        <mxCell id="RglcB5ilUzWC2CmNjKel-31" value="" style="endArrow=classic;html=1;rounded=0;entryX=0;entryY=0.5;entryDx=0;entryDy=0;" edge="1" parent="1" target="RglcB5ilUzWC2CmNjKel-20">
          <mxGeometry width="50" height="50" relative="1" as="geometry">
            <mxPoint x="360.6247826086956" y="615.0438162544169" as="sourcePoint" />
            <mxPoint x="425.50393592677347" y="662.9060070671378" as="targetPoint" />
          </mxGeometry>
        </mxCell>
        <mxCell id="RglcB5ilUzWC2CmNjKel-32" value="" style="endArrow=classic;html=1;rounded=0;entryX=0;entryY=0.5;entryDx=0;entryDy=0;" edge="1" parent="1" target="RglcB5ilUzWC2CmNjKel-14">
          <mxGeometry width="50" height="50" relative="1" as="geometry">
            <mxPoint x="360.6247826086956" y="615.0438162544169" as="sourcePoint" />
            <mxPoint x="425.50393592677347" y="599.0897526501767" as="targetPoint" />
          </mxGeometry>
        </mxCell>
        <mxCell id="RglcB5ilUzWC2CmNjKel-33" value="" style="endArrow=classic;html=1;rounded=0;entryX=1;entryY=0.5;entryDx=0;entryDy=0;" edge="1" parent="1" target="RglcB5ilUzWC2CmNjKel-21">
          <mxGeometry width="50" height="50" relative="1" as="geometry">
            <mxPoint x="784" y="160" as="sourcePoint" />
            <mxPoint x="1456.236681922197" y="440.46173144876326" as="targetPoint" />
          </mxGeometry>
        </mxCell>
        <mxCell id="RglcB5ilUzWC2CmNjKel-14" value="Gestionar Cargadores" style="ellipse;whiteSpace=wrap;html=1;container=0;" vertex="1" parent="1">
          <mxGeometry x="436.13986270022883" y="572.4996466431096" width="106.35926773455378" height="53.18021201413428" as="geometry" />
        </mxCell>
        <mxCell id="RglcB5ilUzWC2CmNjKel-20" value="Consultar estadísticas" style="ellipse;whiteSpace=wrap;html=1;container=0;" vertex="1" parent="1">
          <mxGeometry x="436.13986270022883" y="630.9978798586573" width="106.35926773455378" height="53.18021201413428" as="geometry" />
        </mxCell>
        <mxCell id="RglcB5ilUzWC2CmNjKel-52" value="" style="edgeStyle=orthogonalEdgeStyle;rounded=0;orthogonalLoop=1;jettySize=auto;html=1;dashed=1;" edge="1" parent="1" source="RglcB5ilUzWC2CmNjKel-13" target="RglcB5ilUzWC2CmNjKel-15">
          <mxGeometry relative="1" as="geometry" />
        </mxCell>
        <mxCell id="RglcB5ilUzWC2CmNjKel-53" value="+include" style="edgeLabel;html=1;align=center;verticalAlign=middle;resizable=0;points=[];container=0;" vertex="1" connectable="0" parent="RglcB5ilUzWC2CmNjKel-52">
          <mxGeometry x="-0.33" y="1" relative="1" as="geometry">
            <mxPoint y="-3" as="offset" />
          </mxGeometry>
        </mxCell>
        <mxCell id="RglcB5ilUzWC2CmNjKel-13" value="Reservar Cargador" style="ellipse;whiteSpace=wrap;html=1;container=0;" vertex="1" parent="1">
          <mxGeometry x="436.13986270022883" y="350.886925795053" width="106.35926773455378" height="53.18021201413428" as="geometry" />
        </mxCell>
        <mxCell id="RglcB5ilUzWC2CmNjKel-15" value="Buscar Cargadores" style="ellipse;whiteSpace=wrap;html=1;container=0;" vertex="1" parent="1">
          <mxGeometry x="436.13986270022883" y="263.6077738515901" width="106.35926773455378" height="53.18021201413428" as="geometry" />
        </mxCell>
        <mxCell id="RglcB5ilUzWC2CmNjKel-54" value="+extend" style="html=1;verticalAlign=bottom;endArrow=classic;dashed=1;endSize=8;curved=0;rounded=0;exitX=1;exitY=0.5;exitDx=0;exitDy=0;entryX=0;entryY=0.5;entryDx=0;entryDy=0;endFill=1;" edge="1" parent="1" source="RglcB5ilUzWC2CmNjKel-13" target="RglcB5ilUzWC2CmNjKel-16">
          <mxGeometry relative="1" as="geometry">
            <mxPoint x="647.7948054919909" y="617.7879858657243" as="sourcePoint" />
            <mxPoint x="562.7073913043479" y="617.7879858657243" as="targetPoint" />
          </mxGeometry>
        </mxCell>
        <mxCell id="RglcB5ilUzWC2CmNjKel-55" value="+extend" style="html=1;verticalAlign=bottom;endArrow=open;dashed=1;endSize=8;curved=0;rounded=0;exitX=0.5;exitY=1;exitDx=0;exitDy=0;entryX=0.5;entryY=0;entryDx=0;entryDy=0;" edge="1" parent="1" source="RglcB5ilUzWC2CmNjKel-21" target="RglcB5ilUzWC2CmNjKel-22">
          <mxGeometry relative="1" as="geometry">
            <mxPoint x="974.7691304347826" y="570.0023674911661" as="sourcePoint" />
            <mxPoint x="1054.538581235698" y="570.0023674911661" as="targetPoint" />
          </mxGeometry>
        </mxCell>
        <mxCell id="RglcB5ilUzWC2CmNjKel-18" value="Eliminar Cargador" style="ellipse;whiteSpace=wrap;html=1;container=0;" vertex="1" parent="1">
          <mxGeometry x="622.268581235698" y="630.9978798586573" width="106.35926773455378" height="53.18021201413428" as="geometry" />
        </mxCell>
        <mxCell id="RglcB5ilUzWC2CmNjKel-17" value="Añadir Cargador" style="ellipse;whiteSpace=wrap;html=1;container=0;" vertex="1" parent="1">
          <mxGeometry x="622.268581235698" y="510" width="106.35926773455378" height="53.18021201413428" as="geometry" />
        </mxCell>
        <mxCell id="RglcB5ilUzWC2CmNjKel-19" value="Actualizar Cargador" style="ellipse;whiteSpace=wrap;html=1;container=0;" vertex="1" parent="1">
          <mxGeometry x="622.268581235698" y="572.4996466431096" width="106.35926773455378" height="53.18021201413428" as="geometry" />
        </mxCell>
        <mxCell id="RglcB5ilUzWC2CmNjKel-62" value="+include" style="html=1;verticalAlign=bottom;endArrow=classic;dashed=1;endSize=8;curved=0;rounded=0;exitX=1;exitY=0.5;exitDx=0;exitDy=0;entryX=0;entryY=0.5;entryDx=0;entryDy=0;endFill=1;" edge="1" parent="1" source="RglcB5ilUzWC2CmNjKel-14" target="RglcB5ilUzWC2CmNjKel-17">
          <mxGeometry relative="1" as="geometry">
            <mxPoint x="530.7996109839818" y="529.9554770318022" as="sourcePoint" />
            <mxPoint x="610.569061784897" y="529.9554770318022" as="targetPoint" />
          </mxGeometry>
        </mxCell>
        <mxCell id="RglcB5ilUzWC2CmNjKel-63" value="+include" style="html=1;verticalAlign=bottom;endArrow=classic;dashed=1;endSize=8;curved=0;rounded=0;exitX=1;exitY=0.5;exitDx=0;exitDy=0;entryX=0;entryY=0.5;entryDx=0;entryDy=0;endFill=1;" edge="1" parent="1" source="RglcB5ilUzWC2CmNjKel-14" target="RglcB5ilUzWC2CmNjKel-19">
          <mxGeometry relative="1" as="geometry">
            <mxPoint x="537.1811670480549" y="590.5809187279152" as="sourcePoint" />
            <mxPoint x="632.9045080091533" y="551.2275618374558" as="targetPoint" />
          </mxGeometry>
        </mxCell>
        <mxCell id="RglcB5ilUzWC2CmNjKel-64" value="+include" style="html=1;verticalAlign=bottom;endArrow=classic;dashed=1;endSize=8;curved=0;rounded=0;exitX=1;exitY=0.5;exitDx=0;exitDy=0;entryX=0;entryY=0.5;entryDx=0;entryDy=0;endFill=1;" edge="1" parent="1" source="RglcB5ilUzWC2CmNjKel-14" target="RglcB5ilUzWC2CmNjKel-18">
          <mxGeometry relative="1" as="geometry">
            <mxPoint x="547.8170938215104" y="601.216961130742" as="sourcePoint" />
            <mxPoint x="643.5404347826086" y="561.8636042402827" as="targetPoint" />
          </mxGeometry>
        </mxCell>
        <mxCell id="RglcB5ilUzWC2CmNjKel-66" value="Ver Historial Reservas" style="ellipse;whiteSpace=wrap;html=1;container=0;" vertex="1" parent="1">
          <mxGeometry x="436.13986270022883" y="415.9956183745584" width="106.35926773455378" height="53.18021201413428" as="geometry" />
        </mxCell>
        <mxCell id="RglcB5ilUzWC2CmNjKel-67" value="" style="endArrow=classic;html=1;rounded=0;entryX=0;entryY=0.5;entryDx=0;entryDy=0;" edge="1" parent="1" target="RglcB5ilUzWC2CmNjKel-66">
          <mxGeometry width="50" height="50" relative="1" as="geometry">
            <mxPoint x="349.98885583524026" y="405.0671378091873" as="sourcePoint" />
            <mxPoint x="446.7757894736842" y="389.113074204947" as="targetPoint" />
          </mxGeometry>
        </mxCell>
        <mxCell id="RglcB5ilUzWC2CmNjKel-74" value="Encuentra tu Cargador" style="text;html=1;align=center;verticalAlign=middle;whiteSpace=wrap;rounded=0;fontSize=14;fontStyle=1;container=0;" vertex="1" parent="1">
          <mxGeometry x="409.9962700228832" y="64.09" width="180.81075514874144" height="31.90812720848057" as="geometry" />
        </mxCell>
        <mxCell id="RglcB5ilUzWC2CmNjKel-85" value="Iniciar Sesión" style="ellipse;whiteSpace=wrap;html=1;container=0;" vertex="1" parent="1">
          <mxGeometry x="436.13986270022883" y="109.99777385159013" width="106.35926773455378" height="53.18021201413428" as="geometry" />
        </mxCell>
        <mxCell id="RglcB5ilUzWC2CmNjKel-86" value="" style="endArrow=classic;html=1;rounded=0;entryX=0;entryY=0.5;entryDx=0;entryDy=0;" edge="1" parent="1" target="RglcB5ilUzWC2CmNjKel-85">
          <mxGeometry width="50" height="50" relative="1" as="geometry">
            <mxPoint x="350" y="410" as="sourcePoint" />
            <mxPoint x="447.38999999999896" y="180.24" as="targetPoint" />
          </mxGeometry>
        </mxCell>
        <mxCell id="RglcB5ilUzWC2CmNjKel-87" value="" style="endArrow=classic;html=1;rounded=0;entryX=0.009;entryY=0.704;entryDx=0;entryDy=0;entryPerimeter=0;" edge="1" parent="1" target="RglcB5ilUzWC2CmNjKel-85">
          <mxGeometry width="50" height="50" relative="1" as="geometry">
            <mxPoint x="364" y="610" as="sourcePoint" />
            <mxPoint x="447.38999999999896" y="180.24" as="targetPoint" />
          </mxGeometry>
        </mxCell>
        <mxCell id="RglcB5ilUzWC2CmNjKel-92" value="Validar Credenciales" style="ellipse;whiteSpace=wrap;html=1;container=0;" vertex="1" parent="1">
          <mxGeometry x="622.268581235698" y="99.99692579505302" width="106.35926773455378" height="53.18021201413428" as="geometry" />
        </mxCell>
        <mxCell id="RglcB5ilUzWC2CmNjKel-93" value="Registrarse" style="ellipse;whiteSpace=wrap;html=1;container=0;" vertex="1" parent="1">
          <mxGeometry x="436.13858123569787" y="489.996925795053" width="106.35926773455378" height="53.18021201413428" as="geometry" />
        </mxCell>
        <mxCell id="RglcB5ilUzWC2CmNjKel-95" value="" style="endArrow=classic;html=1;rounded=0;entryX=-0.009;entryY=0.328;entryDx=0;entryDy=0;entryPerimeter=0;" edge="1" parent="1" target="RglcB5ilUzWC2CmNjKel-93">
          <mxGeometry width="50" height="50" relative="1" as="geometry">
            <mxPoint x="350" y="400" as="sourcePoint" />
            <mxPoint x="446" y="387" as="targetPoint" />
          </mxGeometry>
        </mxCell>
        <mxCell id="RglcB5ilUzWC2CmNjKel-97" value="+include" style="html=1;verticalAlign=bottom;endArrow=classic;dashed=1;endSize=8;curved=0;rounded=0;exitX=1;exitY=0.5;exitDx=0;exitDy=0;entryX=0;entryY=0.5;entryDx=0;entryDy=0;endFill=1;" edge="1" parent="1" source="RglcB5ilUzWC2CmNjKel-85" target="RglcB5ilUzWC2CmNjKel-92">
          <mxGeometry relative="1" as="geometry">
            <mxPoint x="542.5" y="291.18" as="sourcePoint" />
            <mxPoint x="622.5" y="233.18" as="targetPoint" />
          </mxGeometry>
        </mxCell>
        <mxCell id="RglcB5ilUzWC2CmNjKel-98" value="Crear Cuenta" style="ellipse;whiteSpace=wrap;html=1;container=0;" vertex="1" parent="1">
          <mxGeometry x="622.268581235698" y="436.82" width="106.35926773455378" height="53.18021201413428" as="geometry" />
        </mxCell>
        <mxCell id="RglcB5ilUzWC2CmNjKel-99" value="+include" style="html=1;verticalAlign=bottom;endArrow=classic;dashed=1;endSize=8;curved=0;rounded=0;exitX=1;exitY=0.5;exitDx=0;exitDy=0;entryX=0;entryY=0.5;entryDx=0;entryDy=0;endFill=1;" edge="1" parent="1" source="RglcB5ilUzWC2CmNjKel-93" target="RglcB5ilUzWC2CmNjKel-98">
          <mxGeometry relative="1" as="geometry">
            <mxPoint x="552" y="473.64" as="sourcePoint" />
            <mxPoint x="614" y="473.64" as="targetPoint" />
          </mxGeometry>
        </mxCell>
        <mxCell id="RglcB5ilUzWC2CmNjKel-100" value="Cerrar Sesión" style="ellipse;whiteSpace=wrap;html=1;container=0;" vertex="1" parent="1">
          <mxGeometry x="436.13986270022883" y="199.36777385159013" width="106.35926773455378" height="53.18021201413428" as="geometry" />
        </mxCell>
        <mxCell id="RglcB5ilUzWC2CmNjKel-102" value="+extend" style="html=1;verticalAlign=bottom;endArrow=classic;dashed=1;endSize=8;curved=0;rounded=0;exitX=0.5;exitY=1;exitDx=0;exitDy=0;entryX=0.5;entryY=0;entryDx=0;entryDy=0;endFill=1;" edge="1" parent="1" source="RglcB5ilUzWC2CmNjKel-85" target="RglcB5ilUzWC2CmNjKel-100">
          <mxGeometry relative="1" as="geometry">
            <mxPoint x="552" y="387" as="sourcePoint" />
            <mxPoint x="632" y="388" as="targetPoint" />
          </mxGeometry>
        </mxCell>
        <mxCell id="RglcB5ilUzWC2CmNjKel-108" value="" style="endArrow=classic;html=1;rounded=0;entryX=0.946;entryY=0.817;entryDx=0;entryDy=0;entryPerimeter=0;" edge="1" parent="1" target="RglcB5ilUzWC2CmNjKel-85">
          <mxGeometry width="50" height="50" relative="1" as="geometry">
            <mxPoint x="784" y="160" as="sourcePoint" />
            <mxPoint x="739" y="227" as="targetPoint" />
          </mxGeometry>
        </mxCell>
        <mxCell id="RglcB5ilUzWC2CmNjKel-109" value="" style="endArrow=classic;html=1;rounded=0;entryX=0.052;entryY=0.791;entryDx=0;entryDy=0;entryPerimeter=0;" edge="1" parent="1" target="RglcB5ilUzWC2CmNjKel-100">
          <mxGeometry width="50" height="50" relative="1" as="geometry">
            <mxPoint x="364" y="610" as="sourcePoint" />
            <mxPoint x="447" y="157" as="targetPoint" />
          </mxGeometry>
        </mxCell>
        <mxCell id="RglcB5ilUzWC2CmNjKel-110" value="" style="endArrow=classic;html=1;rounded=0;entryX=0;entryY=0.5;entryDx=0;entryDy=0;" edge="1" parent="1" target="RglcB5ilUzWC2CmNjKel-100">
          <mxGeometry width="50" height="50" relative="1" as="geometry">
            <mxPoint x="354" y="400" as="sourcePoint" />
            <mxPoint x="457" y="167" as="targetPoint" />
          </mxGeometry>
        </mxCell>
        <mxCell id="RglcB5ilUzWC2CmNjKel-111" value="" style="endArrow=classic;html=1;rounded=0;entryX=1;entryY=0.5;entryDx=0;entryDy=0;" edge="1" parent="1" target="RglcB5ilUzWC2CmNjKel-100">
          <mxGeometry width="50" height="50" relative="1" as="geometry">
            <mxPoint x="784" y="160" as="sourcePoint" />
            <mxPoint x="739" y="227" as="targetPoint" />
          </mxGeometry>
        </mxCell>
        <mxCell id="RglcB5ilUzWC2CmNjKel-112" value="Gestionar&amp;nbsp; Usuarios" style="ellipse;whiteSpace=wrap;html=1;container=0;" vertex="1" parent="1">
          <mxGeometry x="436.13986270022883" y="689.9978798586573" width="106.35926773455378" height="53.18021201413428" as="geometry" />
        </mxCell>
        <mxCell id="RglcB5ilUzWC2CmNjKel-113" value="" style="endArrow=classic;html=1;rounded=0;entryX=0;entryY=0.5;entryDx=0;entryDy=0;" edge="1" parent="1" target="RglcB5ilUzWC2CmNjKel-112">
          <mxGeometry width="50" height="50" relative="1" as="geometry">
            <mxPoint x="360" y="620" as="sourcePoint" />
            <mxPoint x="446" y="668" as="targetPoint" />
          </mxGeometry>
        </mxCell>
        <mxCell id="RglcB5ilUzWC2CmNjKel-114" value="Asignar Roles" style="ellipse;whiteSpace=wrap;html=1;container=0;" vertex="1" parent="1">
          <mxGeometry x="622.2698627002288" y="689.9978798586573" width="106.35926773455378" height="53.18021201413428" as="geometry" />
        </mxCell>
        <mxCell id="RglcB5ilUzWC2CmNjKel-115" value="+include" style="html=1;verticalAlign=bottom;endArrow=classic;dashed=1;endSize=8;curved=0;rounded=0;exitX=1;exitY=0.5;exitDx=0;exitDy=0;entryX=0;entryY=0.5;entryDx=0;entryDy=0;endFill=1;" edge="1" parent="1" source="RglcB5ilUzWC2CmNjKel-112" target="RglcB5ilUzWC2CmNjKel-114">
          <mxGeometry relative="1" as="geometry">
            <mxPoint x="552" y="609" as="sourcePoint" />
            <mxPoint x="632" y="668" as="targetPoint" />
          </mxGeometry>
        </mxCell>
        <mxCell id="RglcB5ilUzWC2CmNjKel-116" value="" style="endArrow=none;html=1;rounded=0;curved=0;strokeWidth=3;" edge="1" parent="1">
          <mxGeometry width="50" height="50" relative="1" as="geometry">
            <mxPoint x="380.21000000000004" y="80" as="sourcePoint" />
            <mxPoint x="380" y="760" as="targetPoint" />
          </mxGeometry>
        </mxCell>
        <mxCell id="RglcB5ilUzWC2CmNjKel-117" value="" style="endArrow=none;html=1;rounded=0;curved=0;strokeWidth=3;" edge="1" parent="1">
          <mxGeometry width="50" height="50" relative="1" as="geometry">
            <mxPoint x="760.21" y="80" as="sourcePoint" />
            <mxPoint x="760" y="760" as="targetPoint" />
          </mxGeometry>
        </mxCell>
        <mxCell id="RglcB5ilUzWC2CmNjKel-118" value="" style="endArrow=none;html=1;rounded=0;curved=0;strokeWidth=3;" edge="1" parent="1">
          <mxGeometry width="50" height="50" relative="1" as="geometry">
            <mxPoint x="380" y="760" as="sourcePoint" />
            <mxPoint x="760" y="760" as="targetPoint" />
          </mxGeometry>
        </mxCell>
        <mxCell id="RglcB5ilUzWC2CmNjKel-119" value="" style="endArrow=none;html=1;rounded=0;entryX=0;entryY=0.5;entryDx=0;entryDy=0;strokeWidth=3;" edge="1" parent="1" target="RglcB5ilUzWC2CmNjKel-74">
          <mxGeometry width="50" height="50" relative="1" as="geometry">
            <mxPoint x="380" y="80" as="sourcePoint" />
            <mxPoint x="650" y="160" as="targetPoint" />
          </mxGeometry>
        </mxCell>
        <mxCell id="RglcB5ilUzWC2CmNjKel-120" value="" style="endArrow=none;html=1;rounded=0;exitX=1;exitY=0.5;exitDx=0;exitDy=0;strokeWidth=3;" edge="1" parent="1" source="RglcB5ilUzWC2CmNjKel-74">
          <mxGeometry width="50" height="50" relative="1" as="geometry">
            <mxPoint x="600" y="210" as="sourcePoint" />
            <mxPoint x="760" y="80" as="targetPoint" />
          </mxGeometry>
        </mxCell>
      </root>
    </mxGraphModel>
  </diagram>
</mxfile>
